<svg id="svg" version="1.1" xmlns="http://www.w3.org/2000/svg" xmlns:xlink="http://www.w3.org/1999/xlink" width="400" height="96.65071770334927" viewBox="0, 0, 400,96.65071770334927"><g id="svgg"><path id="path0" d="M27.333 19.167 C 27.333 19.611,27.278 19.667,26.833 19.667 C 26.411 19.667,26.333 19.731,26.333 20.083 C 26.333 20.313,26.240 20.509,26.125 20.519 C 26.010 20.530,25.804 20.549,25.667 20.561 C 25.454 20.580,25.409 21.150,25.367 24.375 L 25.318 28.167 25.826 28.167 C 26.254 28.167,26.333 28.231,26.333 28.578 C 26.333 29.338,27.374 30.167,28.327 30.167 C 29.047 30.167,29.150 30.211,29.197 30.542 L 29.250 30.917 43.548 30.959 L 57.847 31.002 58.239 30.610 C 58.505 30.343,58.906 30.185,59.486 30.116 C 60.504 29.995,60.667 29.912,60.667 29.506 C 60.667 29.315,60.855 29.134,61.167 29.025 C 61.662 28.852,61.667 28.839,61.667 27.611 L 61.667 26.371 62.167 26.298 C 62.635 26.229,62.667 26.259,62.667 26.769 C 62.667 27.069,62.738 27.358,62.826 27.412 C 62.914 27.466,62.943 27.622,62.891 27.757 C 62.821 27.939,62.874 27.974,63.092 27.890 C 63.312 27.806,63.353 27.834,63.250 28.000 C 63.149 28.163,63.187 28.195,63.389 28.117 C 63.551 28.055,63.677 28.095,63.692 28.214 C 63.706 28.325,63.735 28.492,63.756 28.583 C 63.777 28.675,63.804 28.839,63.814 28.949 C 63.825 29.058,63.987 29.118,64.175 29.082 C 64.524 29.015,64.893 29.584,64.705 29.901 C 64.655 29.984,64.702 29.998,64.808 29.933 C 64.913 29.867,65.000 29.889,65.000 29.980 C 65.000 30.072,65.206 30.128,65.458 30.104 C 66.106 30.045,66.831 30.313,66.730 30.576 C 66.584 30.955,67.230 30.984,76.093 30.996 C 84.864 31.008,85.159 30.992,84.793 30.515 C 84.678 30.365,84.763 30.395,84.990 30.583 C 85.210 30.767,85.336 30.823,85.269 30.708 C 85.197 30.586,85.237 30.499,85.365 30.497 C 85.524 30.496,85.515 30.451,85.333 30.333 C 85.142 30.210,85.210 30.166,85.625 30.148 C 86.673 30.103,86.784 30.082,87.031 29.876 C 87.168 29.763,87.342 29.725,87.417 29.793 C 87.492 29.861,87.507 29.788,87.451 29.630 C 87.348 29.344,87.551 29.123,87.974 29.059 C 88.317 29.007,88.370 28.903,88.448 28.132 C 88.552 27.101,88.601 27.014,89.016 27.123 C 89.259 27.186,89.347 27.157,89.273 27.038 C 89.212 26.938,89.226 26.816,89.306 26.767 C 89.499 26.647,89.496 22.164,89.302 21.786 C 89.218 21.623,89.022 21.511,88.866 21.536 C 88.652 21.572,88.572 21.442,88.535 21.000 C 88.509 20.679,88.441 20.304,88.384 20.167 C 88.327 20.029,88.288 19.873,88.297 19.820 C 88.307 19.767,88.153 19.736,87.957 19.750 C 87.749 19.765,87.368 19.546,87.049 19.226 L 86.498 18.676 75.811 18.669 C 68.067 18.664,65.060 18.714,64.895 18.851 C 64.609 19.088,64.593 19.394,64.875 19.236 C 64.990 19.172,64.969 19.242,64.829 19.392 C 64.688 19.542,64.381 19.680,64.145 19.700 C 63.791 19.729,63.713 19.823,63.701 20.230 C 63.694 20.502,63.566 20.793,63.418 20.876 C 63.110 21.048,62.742 21.811,62.688 22.388 C 62.674 22.536,62.502 22.585,62.167 22.536 C 61.678 22.464,61.667 22.441,61.667 21.504 C 61.667 20.373,61.145 19.667,60.311 19.667 C 59.891 19.667,59.833 19.606,59.833 19.167 L 59.833 18.667 43.583 18.667 L 27.333 18.667 27.333 19.167 M29.667 34.162 C 29.667 34.256,29.554 34.333,29.417 34.333 C 29.279 34.333,29.167 34.446,29.167 34.583 C 29.167 34.801,28.146 34.962,27.458 34.853 C 27.390 34.842,27.333 35.053,27.333 35.322 C 27.333 35.732,27.259 35.820,26.875 35.864 C 26.515 35.905,26.405 36.015,26.364 36.375 C 26.320 36.760,26.232 36.833,25.817 36.833 L 25.323 36.833 25.340 40.590 L 25.357 44.346 25.845 44.444 C 26.221 44.519,26.333 44.633,26.333 44.938 C 26.333 45.266,26.418 45.333,26.833 45.333 C 27.278 45.333,27.333 45.389,27.333 45.833 L 27.333 46.333 28.731 46.333 C 29.985 46.333,30.137 46.367,30.214 46.665 C 30.372 47.267,31.016 47.333,36.736 47.333 C 43.488 47.333,44.271 47.272,44.406 46.734 C 44.496 46.373,44.597 46.343,45.876 46.298 C 47.237 46.250,47.250 46.246,47.303 45.792 C 47.347 45.408,47.435 45.333,47.844 45.333 C 48.113 45.333,48.324 45.277,48.314 45.208 C 48.221 44.623,48.362 44.333,48.740 44.333 C 49.005 44.333,49.156 44.232,49.174 44.042 C 49.280 42.941,49.326 37.562,49.231 37.348 C 49.167 37.202,49.126 37.027,49.140 36.958 C 49.155 36.890,48.979 36.833,48.750 36.833 C 48.398 36.833,48.333 36.756,48.333 36.333 C 48.333 35.891,48.277 35.833,47.844 35.833 C 47.435 35.833,47.347 35.759,47.303 35.375 C 47.248 34.897,47.217 34.884,46.042 34.853 C 45.444 34.836,45.333 34.780,45.333 34.490 C 45.333 34.301,45.258 34.193,45.167 34.250 C 45.075 34.307,45.000 34.278,45.000 34.186 C 45.000 34.077,42.335 34.014,37.333 34.005 C 32.190 33.996,29.667 34.047,29.667 34.162 M28.583 66.547 C 28.400 66.659,28.250 66.862,28.250 67.000 C 28.250 67.182,28.000 67.273,27.333 67.333 C 26.490 67.410,26.413 67.452,26.365 67.859 C 26.330 68.165,26.191 68.333,25.914 68.402 C 25.359 68.542,25.311 68.963,25.368 73.167 L 25.417 76.750 25.875 76.803 C 26.259 76.847,26.333 76.935,26.333 77.344 C 26.333 77.777,26.391 77.833,26.833 77.833 C 27.250 77.833,27.333 77.900,27.333 78.232 C 27.333 78.849,26.852 78.833,45.500 78.833 C 64.113 78.833,63.667 78.848,63.667 78.241 C 63.667 77.888,63.750 77.846,64.542 77.800 L 65.417 77.750 65.467 76.885 C 65.513 76.084,65.550 76.017,65.967 75.969 L 66.417 75.917 66.462 72.625 L 66.507 69.333 66.004 69.333 C 65.529 69.333,65.500 69.296,65.500 68.680 C 65.500 67.666,65.384 67.518,64.492 67.400 C 63.842 67.314,63.675 67.225,63.634 66.944 C 63.598 66.697,63.414 66.560,63.000 66.472 C 61.931 66.246,28.960 66.317,28.583 66.547 " stroke="none" fill="#54b2ee" fill-rule="evenodd"></path><path id="path1" d="M28.542 50.277 C 28.427 50.323,28.333 50.542,28.333 50.764 C 28.333 51.134,28.268 51.167,27.533 51.167 C 26.727 51.167,26.333 51.373,26.333 51.796 C 26.333 51.922,26.107 52.252,25.830 52.529 L 25.327 53.032 25.372 56.808 L 25.417 60.583 25.865 60.635 C 26.211 60.675,26.325 60.789,26.365 61.135 C 26.405 61.484,26.518 61.595,26.875 61.636 C 27.235 61.677,27.333 61.776,27.333 62.094 L 27.333 62.500 57.000 62.500 L 86.667 62.500 86.667 62.102 C 86.667 61.759,86.769 61.689,87.416 61.592 C 88.263 61.465,88.500 61.174,88.500 60.261 C 88.500 59.746,88.553 59.667,88.897 59.667 C 89.436 59.667,89.495 59.363,89.498 56.559 L 89.500 54.202 89.000 53.667 C 88.689 53.333,88.500 52.954,88.500 52.660 C 88.500 52.270,88.421 52.180,88.042 52.136 C 87.682 52.095,87.572 51.985,87.531 51.625 C 87.480 51.188,87.435 51.167,86.583 51.167 C 85.731 51.167,85.686 51.145,85.636 50.708 L 85.583 50.250 57.167 50.221 C 41.537 50.205,28.656 50.230,28.542 50.277 M70.549 66.521 C 70.255 66.604,69.915 66.815,69.794 66.988 C 69.672 67.162,69.350 67.330,69.078 67.360 C 68.642 67.410,68.571 67.496,68.482 68.083 C 68.426 68.450,68.370 68.656,68.357 68.542 C 68.324 68.255,67.919 68.280,67.667 68.583 C 67.501 68.783,67.501 68.884,67.667 69.083 C 67.810 69.256,67.816 69.333,67.687 69.333 C 67.570 69.333,67.500 69.695,67.500 70.294 C 67.500 71.130,67.451 71.276,67.125 71.419 C 66.514 71.687,66.475 73.587,67.075 73.860 C 67.489 74.049,67.655 75.029,67.528 76.541 C 67.515 76.701,67.559 76.823,67.627 76.813 C 68.206 76.723,68.482 76.867,68.531 77.285 C 68.568 77.608,68.702 77.764,69.000 77.834 C 69.275 77.897,69.436 78.065,69.473 78.326 C 69.517 78.630,69.564 78.667,69.679 78.485 C 69.800 78.295,69.829 78.306,69.831 78.542 C 69.835 79.029,86.428 78.989,86.583 78.501 C 86.641 78.319,86.645 78.099,86.591 78.013 C 86.538 77.927,86.702 77.832,86.956 77.803 C 87.319 77.761,87.428 77.652,87.469 77.292 C 87.514 76.908,87.602 76.833,88.011 76.833 C 88.443 76.833,88.500 76.775,88.500 76.333 C 88.500 75.911,88.565 75.833,88.917 75.833 C 89.203 75.833,89.333 75.742,89.331 75.542 C 89.329 75.314,89.297 75.300,89.185 75.476 C 89.093 75.621,89.004 75.641,88.935 75.530 C 88.876 75.435,88.989 75.306,89.186 75.244 C 89.467 75.155,89.494 75.099,89.314 74.984 C 89.164 74.889,89.152 74.838,89.281 74.836 C 89.427 74.834,89.471 74.165,89.448 72.320 C 89.416 69.716,89.367 69.539,88.622 69.291 C 88.532 69.261,88.458 69.042,88.458 68.806 C 88.458 68.461,88.378 68.375,88.056 68.375 C 87.557 68.375,87.510 68.328,87.466 67.797 C 87.436 67.442,87.354 67.377,86.965 67.404 C 86.518 67.435,86.416 67.292,86.483 66.730 C 86.530 66.331,71.901 66.139,70.549 66.521 " stroke="none" fill="#f6a33c" fill-rule="evenodd"></path><path id="path2" d="M12.667 2.083 C 12.497 2.288,12.508 2.333,12.730 2.333 C 12.878 2.333,13.000 2.221,13.000 2.083 C 13.000 1.946,12.972 1.833,12.937 1.833 C 12.902 1.833,12.781 1.946,12.667 2.083 M153.167 12.063 C 153.167 12.098,153.279 12.219,153.417 12.333 C 153.621 12.503,153.667 12.492,153.667 12.270 C 153.667 12.122,153.554 12.000,153.417 12.000 C 153.279 12.000,153.167 12.028,153.167 12.063 M181.000 14.583 C 180.830 14.788,180.841 14.833,181.063 14.833 C 181.212 14.833,181.333 14.721,181.333 14.583 C 181.333 14.446,181.305 14.333,181.270 14.333 C 181.236 14.333,181.114 14.446,181.000 14.583 M399.500 20.750 C 399.500 20.887,399.613 21.000,399.750 21.000 C 399.887 21.000,400.000 20.887,400.000 20.750 C 400.000 20.612,399.887 20.500,399.750 20.500 C 399.613 20.500,399.500 20.612,399.500 20.750 M206.667 23.396 C 206.667 23.431,206.779 23.553,206.917 23.667 C 207.121 23.837,207.167 23.825,207.167 23.604 C 207.167 23.455,207.054 23.333,206.917 23.333 C 206.779 23.333,206.667 23.362,206.667 23.396 M229.167 24.604 C 229.167 24.825,229.212 24.837,229.417 24.667 C 229.554 24.553,229.667 24.431,229.667 24.396 C 229.667 24.362,229.554 24.333,229.417 24.333 C 229.279 24.333,229.167 24.455,229.167 24.604 M288.500 28.917 C 288.500 29.054,288.622 29.167,288.770 29.167 C 288.992 29.167,289.003 29.121,288.833 28.917 C 288.719 28.779,288.598 28.667,288.563 28.667 C 288.528 28.667,288.500 28.779,288.500 28.917 M280.333 31.063 C 280.333 31.098,280.446 31.219,280.583 31.333 C 280.788 31.503,280.833 31.492,280.833 31.270 C 280.833 31.122,280.721 31.000,280.583 31.000 C 280.446 31.000,280.333 31.028,280.333 31.063 M54.167 34.415 C 54.167 34.812,54.119 34.833,53.233 34.833 C 52.321 34.833,51.167 35.554,51.167 36.122 C 51.167 36.208,50.937 36.483,50.655 36.734 C 50.299 37.051,50.153 37.325,50.173 37.636 C 50.230 38.517,50.164 38.833,49.923 38.833 C 49.222 38.833,49.134 41.634,49.818 42.188 C 50.102 42.418,50.206 42.695,50.237 43.302 C 50.286 44.259,50.408 44.500,50.843 44.500 C 51.077 44.500,51.167 44.615,51.167 44.917 C 51.167 45.269,51.244 45.333,51.667 45.333 C 52.111 45.333,52.167 45.389,52.167 45.833 L 52.167 46.333 53.182 46.333 C 54.011 46.333,54.248 46.397,54.479 46.683 C 54.962 47.279,55.878 47.319,69.167 47.325 C 83.644 47.332,84.288 47.307,84.510 46.725 C 84.642 46.377,84.765 46.333,85.621 46.331 C 86.869 46.328,87.378 46.190,87.261 45.886 C 87.211 45.755,87.244 45.695,87.335 45.751 C 87.426 45.807,87.500 45.736,87.500 45.593 C 87.500 45.444,87.643 45.333,87.833 45.333 C 88.017 45.333,88.167 45.254,88.167 45.157 C 88.167 45.060,88.248 45.030,88.347 45.092 C 88.454 45.158,88.514 45.078,88.494 44.893 C 88.397 43.974,88.506 43.500,88.813 43.500 C 89.415 43.500,89.495 43.141,89.474 40.519 L 89.454 37.982 88.985 37.889 C 88.545 37.801,88.512 37.736,88.466 36.856 C 88.418 35.940,88.404 35.915,87.900 35.866 C 87.460 35.823,87.394 35.759,87.456 35.431 C 87.542 34.986,87.191 34.839,86.036 34.836 C 85.310 34.833,84.429 34.416,84.593 34.152 C 84.643 34.070,78.037 34.005,69.424 34.002 L 54.167 33.997 54.167 34.415 M307.667 37.937 C 307.667 38.159,307.712 38.170,307.917 38.000 C 308.054 37.886,308.167 37.764,308.167 37.730 C 308.167 37.695,308.054 37.667,307.917 37.667 C 307.779 37.667,307.667 37.788,307.667 37.937 M353.167 38.730 C 353.167 38.764,353.279 38.886,353.417 39.000 C 353.621 39.170,353.667 39.159,353.667 38.937 C 353.667 38.788,353.554 38.667,353.417 38.667 C 353.279 38.667,353.167 38.695,353.167 38.730 M7.833 39.417 C 7.663 39.621,7.675 39.667,7.896 39.667 C 8.045 39.667,8.167 39.554,8.167 39.417 C 8.167 39.279,8.138 39.167,8.104 39.167 C 8.069 39.167,7.947 39.279,7.833 39.417 M105.667 39.417 C 105.667 39.554,105.788 39.667,105.937 39.667 C 106.159 39.667,106.170 39.621,106.000 39.417 C 105.886 39.279,105.764 39.167,105.730 39.167 C 105.695 39.167,105.667 39.279,105.667 39.417 M188.714 42.786 C 188.984 43.056,189.016 43.056,189.286 42.786 C 189.556 42.516,189.540 42.500,189.000 42.500 C 188.460 42.500,188.444 42.516,188.714 42.786 M248.048 42.786 C 248.317 43.056,248.349 43.056,248.619 42.786 C 248.889 42.516,248.873 42.500,248.333 42.500 C 247.794 42.500,247.778 42.516,248.048 42.786 M295.881 42.786 C 296.151 43.056,296.183 43.056,296.452 42.786 C 296.722 42.516,296.706 42.500,296.167 42.500 C 295.627 42.500,295.611 42.516,295.881 42.786 M333.214 42.786 C 333.484 43.056,333.516 43.056,333.786 42.786 C 334.056 42.516,334.040 42.500,333.500 42.500 C 332.960 42.500,332.944 42.516,333.214 42.786 M363.825 42.740 C 363.935 42.872,364.131 42.939,364.262 42.889 C 364.654 42.739,364.531 42.500,364.063 42.500 C 363.701 42.500,363.660 42.541,363.825 42.740 M30.000 46.750 C 30.487 47.269,30.516 47.269,30.276 46.751 C 30.170 46.523,29.977 46.335,29.846 46.335 C 29.682 46.334,29.730 46.462,30.000 46.750 M76.221 47.125 C 72.538 47.150,66.463 47.150,62.721 47.125 C 58.979 47.100,61.992 47.079,69.417 47.079 C 76.842 47.079,79.904 47.100,76.221 47.125 M65.500 76.270 C 65.500 76.492,65.545 76.503,65.750 76.333 C 65.887 76.219,66.000 76.098,66.000 76.063 C 66.000 76.028,65.887 76.000,65.750 76.000 C 65.612 76.000,65.500 76.122,65.500 76.270 M87.500 77.097 C 87.500 77.392,87.859 77.340,87.962 77.031 C 87.998 76.922,87.909 76.833,87.764 76.833 C 87.619 76.833,87.500 76.952,87.500 77.097 M63.667 78.104 C 63.667 78.325,63.712 78.337,63.917 78.167 C 64.054 78.053,64.167 77.931,64.167 77.896 C 64.167 77.862,64.054 77.833,63.917 77.833 C 63.779 77.833,63.667 77.955,63.667 78.104 M17.667 85.250 C 17.667 85.388,17.788 85.500,17.937 85.500 C 18.159 85.500,18.170 85.455,18.000 85.250 C 17.886 85.112,17.764 85.000,17.730 85.000 C 17.695 85.000,17.667 85.112,17.667 85.250 " stroke="none" fill="#dc84dc" fill-rule="evenodd"></path><path id="path3" d="M15.000 0.239 C 15.000 0.388,14.794 0.499,14.458 0.531 C 13.982 0.577,13.920 0.639,13.948 1.042 C 13.976 1.445,13.920 1.500,13.490 1.500 C 13.057 1.500,13.000 1.558,13.000 1.997 C 13.000 2.451,12.957 2.488,12.500 2.435 C 12.047 2.383,12.000 2.422,12.000 2.855 C 12.000 3.275,11.939 3.333,11.500 3.333 C 11.040 3.333,11.000 3.380,11.000 3.917 C 11.000 4.301,10.922 4.500,10.770 4.500 C 10.644 4.500,10.442 4.619,10.321 4.765 C 10.125 5.001,10.082 5.291,10.016 6.796 C 10.006 7.038,9.850 7.232,9.583 7.333 L 9.167 7.492 9.167 21.146 L 9.167 34.801 8.667 34.975 L 8.167 35.149 8.167 37.408 L 8.167 39.667 7.667 39.667 C 7.222 39.667,7.167 39.722,7.167 40.167 C 7.167 40.585,7.101 40.667,6.761 40.667 C 6.442 40.667,6.344 40.765,6.303 41.125 C 6.261 41.485,6.152 41.595,5.792 41.636 C 5.432 41.677,5.333 41.776,5.333 42.094 C 5.333 42.470,5.270 42.501,4.458 42.517 C 3.257 42.539,2.779 42.696,2.585 43.130 C 2.443 43.450,2.292 43.500,1.460 43.500 C 0.504 43.500,0.500 43.502,0.500 44.000 C 0.500 44.333,0.417 44.500,0.250 44.500 C 0.038 44.500,0.000 44.926,0.000 47.333 C 0.000 49.741,0.038 50.167,0.250 50.167 C 0.403 50.167,0.500 50.322,0.500 50.566 C 0.500 51.099,0.744 51.167,2.680 51.167 C 4.332 51.167,4.333 51.167,4.333 51.583 C 4.333 51.935,4.411 52.000,4.833 52.000 C 5.250 52.000,5.333 52.067,5.333 52.400 C 5.333 52.693,5.464 52.846,5.820 52.970 C 6.138 53.081,6.326 53.275,6.362 53.528 C 6.398 53.783,6.546 53.935,6.792 53.970 C 7.060 54.008,7.167 54.135,7.167 54.417 C 7.167 55.054,7.479 55.692,7.835 55.786 C 8.139 55.865,8.167 56.016,8.167 57.582 C 8.167 59.823,8.270 60.311,8.771 60.437 L 9.167 60.536 9.167 73.922 L 9.167 87.308 9.578 87.796 C 9.909 88.190,10.003 88.519,10.063 89.482 C 10.136 90.681,10.340 91.167,10.770 91.167 C 10.913 91.167,11.000 91.351,11.000 91.656 C 11.000 92.426,11.283 93.000,11.663 93.000 C 11.924 93.000,12.000 93.109,12.000 93.487 C 12.000 93.892,12.084 93.992,12.500 94.083 C 12.888 94.168,13.000 94.284,13.000 94.597 C 13.000 94.911,13.088 95.000,13.400 95.000 C 13.695 95.000,13.847 95.132,13.975 95.500 C 14.138 95.967,14.206 96.000,14.991 96.000 C 15.629 96.000,15.833 96.061,15.833 96.250 C 15.833 96.468,16.685 96.500,22.500 96.500 C 28.315 96.500,29.167 96.468,29.167 96.250 C 29.167 96.083,29.334 96.000,29.671 96.000 L 30.175 96.000 30.129 93.208 L 30.083 90.417 29.635 90.365 C 29.289 90.325,29.175 90.211,29.135 89.865 L 29.083 89.417 25.292 89.372 L 21.500 89.327 21.500 88.917 C 21.500 88.511,21.056 88.260,20.481 88.341 C 19.869 88.426,19.667 88.321,19.667 87.917 C 19.667 87.566,19.588 87.500,19.175 87.500 C 18.693 87.500,18.682 87.480,18.633 86.542 C 18.586 85.635,18.559 85.580,18.126 85.531 L 17.668 85.478 17.626 70.281 L 17.583 55.083 17.125 55.031 C 16.675 54.979,16.667 54.958,16.667 53.836 C 16.667 52.478,16.570 52.167,16.149 52.167 C 15.909 52.167,15.833 52.046,15.833 51.667 C 15.833 51.222,15.778 51.167,15.333 51.167 C 14.871 51.167,14.833 51.122,14.833 50.572 C 14.833 49.809,14.575 49.333,14.161 49.333 C 13.908 49.333,13.833 49.219,13.833 48.833 C 13.833 48.389,13.778 48.333,13.333 48.333 C 12.938 48.333,12.833 48.261,12.833 47.986 C 12.833 47.757,12.672 47.577,12.366 47.461 C 11.478 47.126,11.825 46.362,12.893 46.300 C 13.682 46.254,13.754 46.215,13.801 45.807 C 13.836 45.506,13.976 45.334,14.240 45.267 C 14.638 45.168,14.827 44.752,14.831 43.969 C 14.833 43.606,14.919 43.512,15.292 43.469 C 15.649 43.428,15.761 43.318,15.802 42.969 C 15.838 42.655,15.963 42.505,16.218 42.469 C 16.555 42.421,16.587 42.312,16.632 41.052 C 16.679 39.706,16.686 39.687,17.132 39.635 L 17.583 39.583 17.626 25.144 C 17.668 10.877,17.672 10.704,18.001 10.618 C 18.184 10.570,18.333 10.412,18.333 10.266 C 18.333 10.120,18.408 10.000,18.500 10.000 C 18.592 10.000,18.667 9.775,18.667 9.500 C 18.667 9.079,18.732 9.000,19.080 9.000 C 19.382 9.000,19.522 8.888,19.598 8.583 C 19.671 8.292,19.817 8.167,20.081 8.167 C 21.027 8.167,21.500 7.966,21.500 7.566 L 21.500 7.173 25.292 7.128 L 29.083 7.083 29.136 6.625 C 29.180 6.241,29.268 6.167,29.678 6.167 L 30.167 6.167 30.167 3.333 L 30.167 0.500 29.667 0.500 C 29.333 0.500,29.167 0.417,29.167 0.250 C 29.167 0.032,28.269 0.000,22.083 0.000 C 16.037 0.000,15.000 0.035,15.000 0.239 M84.667 0.239 C 84.667 0.376,84.471 0.500,84.208 0.531 L 83.750 0.583 83.716 3.000 C 83.675 5.944,83.712 6.167,84.242 6.167 C 84.557 6.167,84.656 6.266,84.697 6.625 L 84.750 7.083 88.542 7.128 C 92.211 7.171,92.333 7.184,92.333 7.507 C 92.333 7.897,92.916 8.167,93.761 8.167 C 94.260 8.167,94.333 8.220,94.333 8.583 C 94.333 8.936,94.411 9.000,94.837 9.000 C 95.280 9.000,95.328 9.046,95.242 9.388 C 95.171 9.673,95.279 9.919,95.655 10.321 L 96.165 10.867 96.207 25.225 L 96.250 39.583 96.702 39.635 C 97.147 39.687,97.154 39.706,97.202 41.052 C 97.250 42.403,97.255 42.417,97.708 42.469 C 98.092 42.514,98.167 42.602,98.167 43.011 C 98.167 43.421,98.234 43.500,98.583 43.500 C 98.813 43.500,99.006 43.594,99.014 43.708 C 99.083 44.758,99.351 45.333,99.770 45.333 C 99.897 45.333,100.000 45.468,100.000 45.633 C 100.000 46.127,100.354 46.333,101.200 46.333 C 102.151 46.333,102.458 47.182,101.586 47.401 C 101.334 47.464,101.132 47.663,101.070 47.910 C 101.000 48.191,100.833 48.330,100.526 48.365 C 100.183 48.405,100.071 48.520,100.031 48.875 C 99.993 49.202,99.884 49.333,99.650 49.333 C 99.247 49.333,99.077 49.766,99.011 50.958 C 99.005 51.073,98.813 51.167,98.583 51.167 C 98.231 51.167,98.167 51.244,98.167 51.667 C 98.167 52.037,98.089 52.167,97.867 52.167 C 97.323 52.167,97.167 52.527,97.167 53.783 C 97.167 54.955,97.152 55.000,96.768 55.000 C 96.153 55.000,96.167 54.639,96.167 70.574 L 96.167 85.620 95.758 85.542 C 95.346 85.464,95.087 85.897,95.174 86.519 C 95.274 87.234,95.159 87.500,94.750 87.500 C 94.417 87.500,94.333 87.583,94.333 87.917 C 94.333 88.326,94.068 88.440,93.353 88.341 C 92.777 88.260,92.333 88.511,92.333 88.917 L 92.333 89.327 88.542 89.372 L 84.750 89.417 84.697 89.875 C 84.656 90.234,84.557 90.333,84.242 90.333 C 83.712 90.333,83.675 90.556,83.716 93.500 L 83.750 95.917 84.208 95.969 C 84.471 96.000,84.667 96.124,84.667 96.261 C 84.667 96.465,85.667 96.500,91.417 96.500 C 97.306 96.500,98.167 96.468,98.167 96.250 C 98.167 96.067,98.357 96.000,98.883 96.000 C 99.646 96.000,100.000 95.781,100.000 95.311 C 100.000 95.120,100.155 95.004,100.458 94.969 C 100.780 94.932,100.932 94.809,100.968 94.557 C 100.999 94.342,101.178 94.158,101.415 94.099 C 101.691 94.029,101.827 93.861,101.864 93.543 C 101.899 93.242,102.031 93.065,102.250 93.024 C 102.706 92.939,102.828 92.701,102.831 91.894 C 102.833 91.348,102.902 91.188,103.165 91.119 C 103.611 91.002,103.833 90.348,103.833 89.151 C 103.833 88.410,103.899 88.131,104.089 88.058 C 104.834 87.772,104.833 87.779,104.833 73.758 C 104.833 62.226,104.865 60.500,105.077 60.500 C 105.526 60.500,105.667 59.871,105.667 57.862 C 105.667 55.902,105.673 55.868,106.063 55.770 C 106.473 55.667,106.660 55.259,106.664 54.458 C 106.666 54.129,106.751 54.000,106.967 54.000 C 107.344 54.000,107.667 53.686,107.667 53.318 C 107.667 53.156,107.844 52.992,108.083 52.932 C 108.388 52.855,108.500 52.716,108.500 52.413 C 108.500 52.065,108.579 52.000,109.000 52.000 C 109.422 52.000,109.500 51.935,109.500 51.583 C 109.500 51.167,109.501 51.167,111.153 51.167 C 113.082 51.167,113.333 51.099,113.333 50.577 C 113.333 50.277,113.438 50.177,113.792 50.136 L 114.250 50.083 114.296 47.292 L 114.341 44.500 113.837 44.500 C 113.388 44.500,113.333 44.445,113.333 44.000 L 113.333 43.500 112.333 43.500 C 111.455 43.500,111.333 43.461,111.333 43.177 C 111.333 42.726,111.141 42.645,109.778 42.523 C 108.704 42.427,108.578 42.379,108.530 42.042 C 108.492 41.777,108.364 41.667,108.093 41.667 C 107.799 41.667,107.685 41.549,107.608 41.167 C 107.529 40.770,107.422 40.667,107.087 40.667 C 106.731 40.667,106.667 40.590,106.667 40.167 C 106.667 39.722,106.611 39.667,106.167 39.667 L 105.667 39.667 105.667 37.351 L 105.667 35.036 105.250 34.932 L 104.833 34.827 104.833 21.684 C 104.833 7.643,104.830 7.567,104.226 7.292 C 103.895 7.141,103.833 6.991,103.833 6.331 C 103.833 5.264,103.548 4.500,103.150 4.500 C 102.899 4.500,102.833 4.379,102.833 3.917 C 102.833 3.380,102.794 3.333,102.333 3.333 C 101.894 3.333,101.833 3.275,101.833 2.856 C 101.833 2.446,101.775 2.386,101.417 2.425 C 101.057 2.464,101.000 2.404,101.000 1.985 C 101.000 1.557,100.941 1.500,100.500 1.500 C 100.056 1.500,100.000 1.444,100.000 1.000 C 100.000 0.556,99.944 0.500,99.500 0.500 C 99.167 0.500,99.000 0.417,99.000 0.250 C 99.000 0.032,98.093 0.000,91.833 0.000 C 85.722 0.000,84.667 0.035,84.667 0.239 M267.500 22.411 L 267.500 42.500 271.751 42.500 L 276.001 42.500 275.959 22.458 L 275.917 2.417 271.708 2.369 L 267.500 2.321 267.500 22.411 M136.336 23.417 L 136.336 42.502 147.293 42.460 L 158.250 42.417 158.303 41.958 L 158.355 41.500 159.761 41.500 C 161.149 41.500,161.167 41.495,161.167 41.083 C 161.167 40.713,161.237 40.666,161.792 40.664 C 162.816 40.661,163.167 40.507,163.167 40.064 C 163.167 39.754,163.256 39.667,163.572 39.667 C 164.209 39.667,164.795 39.383,164.910 39.020 C 164.975 38.817,165.192 38.667,165.466 38.635 C 165.818 38.595,165.928 38.483,165.969 38.125 C 166.014 37.741,166.102 37.667,166.511 37.667 C 166.921 37.667,167.000 37.600,167.000 37.250 C 167.000 36.960,167.091 36.833,167.300 36.833 C 167.680 36.833,168.000 36.518,168.000 36.145 C 168.000 35.973,168.151 35.835,168.375 35.803 C 168.701 35.757,168.757 35.637,168.800 34.885 C 168.846 34.084,168.883 34.017,169.300 33.969 C 169.671 33.926,169.759 33.823,169.801 33.385 C 169.840 32.989,169.944 32.841,170.211 32.802 C 170.634 32.741,170.793 32.276,170.817 31.042 C 170.829 30.402,170.897 30.167,171.071 30.167 C 171.731 30.167,171.833 29.740,171.833 27.000 C 171.833 24.386,171.837 24.356,172.208 24.303 C 172.534 24.257,172.583 24.151,172.583 23.500 C 172.583 22.882,172.517 22.721,172.208 22.585 C 171.842 22.425,171.833 22.358,171.833 19.806 C 171.833 17.095,171.729 16.667,171.071 16.667 C 170.897 16.667,170.829 16.431,170.817 15.792 C 170.793 14.557,170.634 14.093,170.211 14.031 C 169.944 13.993,169.840 13.844,169.801 13.448 C 169.759 13.010,169.671 12.908,169.300 12.865 C 168.883 12.817,168.846 12.749,168.800 11.948 C 168.757 11.211,168.697 11.076,168.394 11.033 C 168.151 10.998,168.007 10.825,167.940 10.491 C 167.862 10.103,167.753 10.000,167.421 10.000 C 167.083 10.000,167.000 9.918,167.000 9.583 C 167.000 9.231,166.922 9.167,166.500 9.167 C 166.056 9.167,166.000 9.111,166.000 8.667 C 166.000 8.222,165.944 8.167,165.500 8.167 C 165.109 8.167,165.000 8.093,165.000 7.829 C 165.000 7.450,164.426 7.167,163.656 7.167 C 163.246 7.167,163.167 7.099,163.167 6.753 C 163.167 6.344,162.725 6.093,162.147 6.174 C 161.432 6.274,161.167 6.159,161.167 5.750 C 161.167 5.338,161.149 5.333,159.761 5.333 L 158.355 5.333 158.303 4.875 L 158.250 4.417 147.293 4.374 L 136.336 4.331 136.336 23.417 M153.667 12.417 C 153.667 12.828,153.684 12.833,155.072 12.833 L 156.478 12.833 156.531 13.292 C 156.580 13.725,156.635 13.753,157.530 13.800 C 158.445 13.848,158.476 13.865,158.447 14.300 C 158.422 14.676,158.492 14.759,158.875 14.803 C 159.230 14.844,159.333 14.944,159.333 15.248 C 159.333 15.548,159.450 15.666,159.833 15.750 C 160.221 15.835,160.333 15.951,160.333 16.263 C 160.333 16.582,160.420 16.667,160.748 16.667 C 161.104 16.667,161.178 16.762,161.271 17.345 C 161.376 18.003,161.628 18.404,162.017 18.533 C 162.124 18.569,162.216 18.993,162.228 19.507 C 162.249 20.369,162.274 20.419,162.708 20.469 L 163.167 20.522 163.167 23.428 L 163.167 26.333 162.763 26.333 C 162.365 26.333,162.135 26.808,162.197 27.500 C 162.298 28.627,162.160 29.167,161.771 29.167 C 161.464 29.167,161.352 29.280,161.275 29.667 C 161.196 30.064,161.088 30.167,160.754 30.167 C 160.398 30.167,160.333 30.243,160.333 30.667 C 160.333 31.088,160.268 31.167,159.920 31.167 C 159.618 31.167,159.478 31.279,159.402 31.583 C 159.326 31.884,159.185 32.000,158.894 32.000 C 158.580 32.000,158.470 32.110,158.392 32.500 C 158.311 32.902,158.206 33.000,157.854 33.002 C 157.075 33.006,156.665 33.197,156.563 33.603 C 156.471 33.973,156.385 34.000,155.327 34.000 C 154.228 34.000,153.667 34.230,153.667 34.679 C 153.667 34.770,151.889 34.833,149.333 34.833 L 145.000 34.833 145.000 23.417 L 145.000 12.000 149.333 12.000 L 153.667 12.000 153.667 12.417 M183.875 12.967 C 183.430 13.011,183.333 13.092,183.333 13.419 C 183.333 13.786,183.260 13.821,182.375 13.867 C 181.468 13.914,181.414 13.941,181.364 14.375 C 181.314 14.812,181.270 14.833,180.406 14.833 C 179.510 14.833,179.500 14.839,179.500 15.333 C 179.500 15.778,179.444 15.833,179.000 15.833 C 178.558 15.833,178.500 15.890,178.500 16.323 C 178.500 16.754,178.445 16.809,178.042 16.781 C 177.656 16.755,177.575 16.823,177.531 17.208 C 177.489 17.570,177.391 17.667,177.068 17.667 C 176.748 17.667,176.637 17.774,176.560 18.158 C 176.493 18.492,176.349 18.665,176.106 18.699 C 175.803 18.742,175.743 18.878,175.700 19.612 C 175.655 20.397,175.607 20.488,175.158 20.645 C 174.669 20.815,174.667 20.822,174.667 22.158 C 174.667 23.462,174.655 23.500,174.268 23.500 C 173.687 23.500,173.667 23.653,173.667 27.913 L 173.667 31.798 174.167 32.333 C 174.605 32.803,174.667 32.989,174.667 33.851 C 174.667 34.828,174.669 34.833,175.158 34.833 C 175.640 34.833,175.651 34.853,175.700 35.792 C 175.747 36.685,175.780 36.753,176.184 36.800 C 176.545 36.842,176.604 36.919,176.539 37.259 C 176.471 37.617,176.521 37.667,176.950 37.667 C 177.409 37.667,177.449 37.720,177.595 38.542 L 177.750 39.417 178.617 39.571 C 179.371 39.705,179.490 39.779,179.533 40.147 C 179.568 40.441,179.711 40.600,180.000 40.667 C 180.264 40.728,180.436 40.899,180.470 41.132 C 180.520 41.478,180.606 41.500,181.928 41.500 L 183.333 41.500 183.333 42.000 L 183.333 42.500 189.300 42.500 C 195.491 42.500,195.667 42.481,195.667 41.808 C 195.667 41.570,195.842 41.507,196.625 41.467 C 197.474 41.422,197.589 41.374,197.637 41.042 C 197.681 40.727,197.793 40.667,198.331 40.667 C 199.228 40.667,199.500 40.527,199.500 40.066 C 199.500 39.733,199.584 39.667,200.000 39.667 C 200.442 39.667,200.500 39.610,200.500 39.178 C 200.500 38.768,200.574 38.680,200.958 38.636 C 201.416 38.583,201.417 38.581,201.417 37.250 C 201.417 35.919,201.416 35.917,200.958 35.864 C 200.598 35.823,200.500 35.724,200.500 35.406 C 200.500 35.165,200.398 34.992,200.250 34.979 C 200.112 34.968,199.906 34.949,199.792 34.938 C 199.677 34.926,199.560 34.711,199.531 34.460 C 199.416 33.461,198.638 33.000,197.071 33.000 L 195.667 33.000 195.667 33.500 C 195.667 33.995,195.657 34.000,194.750 34.000 C 193.883 34.000,193.833 34.023,193.833 34.417 C 193.833 34.732,193.742 34.838,193.458 34.854 C 193.252 34.865,192.728 34.893,192.293 34.916 C 191.471 34.959,191.000 35.210,191.000 35.604 C 191.000 35.775,190.726 35.833,189.917 35.833 C 189.108 35.833,188.833 35.775,188.833 35.604 C 188.833 35.198,188.342 34.949,187.452 34.904 C 186.974 34.880,186.495 34.854,186.387 34.847 C 186.278 34.839,186.166 34.665,186.137 34.458 C 186.099 34.195,185.953 34.068,185.644 34.032 C 185.308 33.994,185.181 33.866,185.106 33.491 C 185.030 33.107,184.919 33.000,184.599 33.000 C 184.275 33.000,184.178 32.903,184.136 32.542 C 184.098 32.213,183.977 32.068,183.708 32.030 C 183.417 31.989,183.333 31.868,183.333 31.488 L 183.333 31.000 193.333 31.000 L 203.333 31.000 203.333 26.950 C 203.333 22.752,203.294 22.500,202.633 22.500 C 202.368 22.500,202.333 22.336,202.333 21.083 C 202.333 19.706,202.323 19.667,201.940 19.667 C 201.592 19.667,201.535 19.570,201.447 18.829 C 201.329 17.827,201.244 17.667,200.835 17.667 C 200.618 17.667,200.506 17.527,200.469 17.208 C 200.428 16.848,200.318 16.739,199.958 16.697 C 199.598 16.656,199.500 16.558,199.500 16.239 C 199.500 15.899,199.419 15.833,199.000 15.833 C 198.556 15.833,198.500 15.778,198.500 15.333 C 198.500 14.891,198.443 14.833,198.011 14.833 C 197.664 14.833,197.491 14.734,197.414 14.490 C 197.271 14.041,196.688 13.833,195.572 13.833 C 194.717 13.833,194.667 13.810,194.667 13.417 C 194.667 13.140,194.568 12.992,194.375 12.975 C 193.761 12.923,184.390 12.916,183.875 12.967 M203.500 12.972 C 203.316 13.034,203.273 15.155,203.438 15.981 C 203.510 16.343,203.662 16.534,203.930 16.602 C 204.270 16.687,204.324 16.814,204.367 17.641 C 204.414 18.531,204.442 18.586,204.875 18.636 C 205.332 18.689,205.333 18.693,205.333 20.008 C 205.333 21.276,205.349 21.331,205.750 21.432 C 206.169 21.537,206.192 21.597,206.230 22.667 C 206.247 23.173,206.310 23.257,206.708 23.303 C 207.166 23.355,207.167 23.358,207.167 24.692 C 207.167 26.024,207.168 26.030,207.667 26.218 C 208.144 26.398,208.167 26.451,208.167 27.381 C 208.167 28.503,208.373 29.000,208.839 29.000 C 209.128 29.000,209.167 29.117,209.167 30.000 C 209.167 30.956,209.185 31.000,209.583 31.000 C 209.938 31.000,210.003 31.081,210.022 31.542 C 210.035 31.840,210.058 32.271,210.075 32.500 C 210.091 32.729,210.118 33.123,210.135 33.375 C 210.160 33.742,210.248 33.833,210.575 33.833 C 210.955 33.833,210.987 33.899,211.033 34.792 C 211.080 35.695,211.109 35.753,211.535 35.802 C 211.981 35.854,211.988 35.873,212.035 37.219 C 212.083 38.570,212.088 38.584,212.542 38.636 C 212.988 38.687,213.000 38.716,213.000 39.755 C 213.000 40.709,213.051 40.875,213.487 41.320 C 213.818 41.658,213.945 41.926,213.884 42.159 C 213.782 42.547,223.015 42.714,223.253 42.328 C 223.312 42.233,223.402 41.599,223.453 40.920 C 223.536 39.825,223.587 39.678,223.898 39.634 C 224.202 39.590,224.257 39.454,224.300 38.634 C 224.341 37.854,224.409 37.665,224.684 37.578 C 225.126 37.438,225.333 36.849,225.333 35.739 C 225.333 34.895,225.360 34.833,225.732 34.833 C 226.239 34.833,226.333 34.573,226.333 33.164 C 226.333 32.042,226.341 32.021,226.792 31.969 C 227.226 31.919,227.253 31.866,227.300 30.958 C 227.342 30.156,227.400 30.000,227.657 30.000 C 228.070 30.000,228.167 29.683,228.167 28.320 L 228.167 27.167 228.667 27.167 L 229.167 27.167 229.167 25.750 L 229.167 24.333 229.658 24.333 C 230.140 24.333,230.151 24.314,230.200 23.375 C 230.243 22.543,230.297 22.410,230.605 22.366 C 230.989 22.311,231.161 21.705,231.165 20.393 C 231.166 19.796,231.223 19.689,231.583 19.598 C 231.969 19.501,232.000 19.420,232.000 18.508 C 232.000 17.619,232.036 17.518,232.368 17.470 C 232.805 17.407,232.960 16.952,232.983 15.665 C 232.998 14.880,233.055 14.722,233.375 14.581 C 233.830 14.382,233.977 13.493,233.606 13.185 C 233.340 12.964,224.754 12.858,224.539 13.072 C 224.477 13.135,224.424 13.781,224.421 14.509 L 224.417 15.833 223.958 15.833 L 223.500 15.833 223.500 17.239 L 223.500 18.645 223.042 18.697 C 222.588 18.749,222.583 18.763,222.535 20.115 C 222.488 21.461,222.481 21.480,222.035 21.531 C 221.548 21.587,221.548 21.585,221.515 23.447 C 221.502 24.208,221.456 24.316,221.127 24.363 C 220.723 24.421,220.418 25.663,220.538 26.767 C 220.569 27.051,220.517 27.283,220.422 27.283 C 219.668 27.275,219.667 27.278,219.667 28.750 L 219.667 30.167 219.167 30.167 C 218.735 30.167,218.665 30.229,218.656 30.625 C 218.646 31.052,218.636 31.059,218.500 30.723 C 218.420 30.525,218.200 30.313,218.011 30.253 C 217.719 30.161,217.667 30.007,217.667 29.247 C 217.667 28.203,217.422 27.562,216.980 27.446 C 216.717 27.378,216.667 27.202,216.667 26.349 C 216.667 25.381,216.647 25.333,216.257 25.333 C 215.858 25.333,215.845 25.295,215.798 23.958 C 215.750 22.596,215.746 22.583,215.292 22.531 L 214.833 22.478 214.833 21.072 L 214.833 19.667 214.333 19.667 L 213.833 19.667 213.833 18.253 C 213.833 16.884,213.820 16.836,213.417 16.735 C 213.032 16.639,213.000 16.556,213.000 15.659 C 213.000 14.448,212.781 13.833,212.349 13.833 C 212.122 13.833,212.006 13.701,211.969 13.401 L 211.917 12.969 207.791 12.943 C 205.522 12.928,203.591 12.942,203.500 12.972 M243.208 12.969 C 242.763 13.012,242.667 13.092,242.667 13.419 C 242.667 13.786,242.593 13.821,241.708 13.867 C 240.806 13.914,240.747 13.943,240.698 14.367 C 240.650 14.783,240.582 14.820,239.781 14.867 C 238.976 14.913,238.913 14.948,238.864 15.375 C 238.820 15.759,238.732 15.833,238.322 15.833 C 237.898 15.833,237.833 15.895,237.833 16.298 C 237.833 16.696,237.767 16.762,237.375 16.757 C 236.997 16.751,236.907 16.830,236.864 17.208 C 236.822 17.570,236.725 17.667,236.401 17.667 C 236.081 17.667,235.970 17.774,235.893 18.158 C 235.827 18.492,235.682 18.665,235.439 18.699 C 235.138 18.742,235.071 18.889,235.000 19.660 C 234.926 20.463,234.868 20.581,234.500 20.667 C 234.103 20.760,234.081 20.828,234.035 22.121 C 233.991 23.369,233.958 23.483,233.625 23.531 C 233.093 23.608,233.035 24.032,233.017 28.008 C 232.999 31.726,233.046 32.000,233.693 32.000 C 233.946 32.000,233.993 32.192,234.035 33.375 C 234.083 34.731,234.089 34.751,234.534 34.802 C 234.957 34.851,234.987 34.910,235.034 35.801 C 235.079 36.660,235.122 36.756,235.500 36.832 C 235.777 36.888,235.917 37.028,235.917 37.250 C 235.917 37.490,236.045 37.598,236.375 37.636 C 236.732 37.677,236.833 37.777,236.833 38.087 C 236.833 39.015,237.485 39.667,238.413 39.667 C 238.722 39.667,238.823 39.768,238.864 40.118 C 238.902 40.442,239.035 40.598,239.333 40.667 C 239.597 40.728,239.770 40.899,239.803 41.132 C 239.853 41.478,239.939 41.500,241.262 41.500 L 242.667 41.500 242.667 42.002 L 242.667 42.504 248.792 42.460 L 254.917 42.417 254.969 41.966 C 255.018 41.543,255.077 41.513,255.969 41.466 C 256.807 41.422,256.923 41.373,256.970 41.042 C 257.015 40.727,257.126 40.667,257.665 40.667 C 258.556 40.667,258.833 40.527,258.833 40.077 C 258.833 39.777,258.938 39.677,259.292 39.636 C 259.649 39.595,259.761 39.484,259.802 39.135 C 259.842 38.789,259.955 38.675,260.302 38.635 C 261.016 38.553,261.006 35.946,260.292 35.864 C 259.906 35.819,259.833 35.733,259.833 35.312 C 259.833 35.022,259.764 34.857,259.667 34.917 C 259.575 34.973,259.500 34.904,259.500 34.764 C 259.500 34.623,259.317 34.388,259.093 34.241 C 258.870 34.095,258.663 33.815,258.635 33.619 C 258.569 33.162,258.100 33.037,256.368 33.017 C 255.351 33.004,254.993 33.055,255.012 33.208 C 255.106 33.925,255.018 34.000,254.083 34.000 C 253.217 34.000,253.167 34.023,253.167 34.417 C 253.167 34.733,253.077 34.837,252.792 34.848 C 250.836 34.923,250.333 35.077,250.333 35.604 C 250.333 35.775,250.059 35.833,249.250 35.833 C 248.441 35.833,248.167 35.775,248.167 35.604 C 248.167 35.097,247.513 34.886,245.803 34.841 C 245.643 34.836,245.500 34.673,245.470 34.458 C 245.432 34.192,245.286 34.068,244.968 34.032 C 244.622 33.992,244.508 33.878,244.468 33.532 C 244.428 33.185,244.315 33.072,243.968 33.032 C 243.622 32.992,243.508 32.878,243.468 32.532 C 243.432 32.214,243.308 32.068,243.042 32.030 C 242.750 31.989,242.667 31.868,242.667 31.488 L 242.667 31.000 252.670 31.000 L 262.672 31.000 262.628 26.792 L 262.583 22.583 262.125 22.531 L 261.667 22.478 261.667 21.072 C 261.667 19.684,261.662 19.667,261.250 19.667 C 260.886 19.667,260.833 19.594,260.833 19.094 C 260.833 18.258,260.564 17.667,260.182 17.667 C 259.950 17.667,259.840 17.534,259.803 17.208 C 259.761 16.848,259.652 16.739,259.292 16.697 C 258.932 16.656,258.833 16.558,258.833 16.239 C 258.833 15.899,258.752 15.833,258.333 15.833 C 257.889 15.833,257.833 15.778,257.833 15.333 C 257.833 14.893,257.776 14.833,257.351 14.833 C 256.983 14.833,256.846 14.740,256.770 14.438 C 256.659 13.993,256.142 13.833,254.813 13.833 C 254.057 13.833,254.000 13.804,254.000 13.417 C 254.000 13.188,253.906 12.988,253.792 12.974 C 253.374 12.923,243.735 12.918,243.208 12.969 M290.708 12.958 C 290.594 12.996,290.500 13.209,290.500 13.431 C 290.500 13.823,290.466 13.833,289.158 13.833 C 287.817 13.833,287.816 13.834,287.642 14.333 C 287.494 14.757,287.381 14.833,286.900 14.833 C 286.359 14.833,285.667 15.295,285.667 15.656 C 285.667 15.741,285.460 15.835,285.208 15.864 C 284.880 15.902,284.735 16.023,284.697 16.292 C 284.662 16.539,284.529 16.667,284.307 16.667 C 284.088 16.667,283.906 16.838,283.785 17.160 C 283.676 17.449,283.458 17.673,283.258 17.701 C 283.009 17.737,282.903 17.894,282.865 18.281 C 282.826 18.681,282.723 18.826,282.449 18.865 C 282.150 18.907,282.055 19.077,281.928 19.792 C 281.793 20.551,281.721 20.667,281.386 20.667 C 281.105 20.667,280.992 20.769,280.971 21.042 C 280.956 21.248,280.926 21.529,280.906 21.667 C 280.885 21.804,280.861 22.455,280.851 23.113 C 280.835 24.221,280.805 24.314,280.458 24.363 C 279.590 24.487,279.572 31.000,280.440 31.000 C 280.815 31.000,281.026 32.485,280.841 33.814 C 280.760 34.391,281.011 34.833,281.420 34.833 C 281.790 34.833,281.833 34.902,281.833 35.486 C 281.833 36.395,281.972 36.667,282.434 36.667 C 282.767 36.667,282.833 36.750,282.833 37.167 C 282.833 37.582,282.900 37.667,283.229 37.667 C 283.536 37.667,283.648 37.780,283.725 38.167 C 283.804 38.560,283.913 38.667,284.235 38.667 C 284.558 38.667,284.656 38.764,284.697 39.125 C 284.739 39.485,284.848 39.595,285.208 39.636 C 285.534 39.674,285.667 39.783,285.667 40.015 C 285.667 40.399,286.258 40.667,287.105 40.667 C 287.614 40.667,287.681 40.714,287.635 41.042 C 287.587 41.388,287.656 41.420,288.531 41.466 C 289.423 41.513,289.482 41.543,289.531 41.966 L 289.583 42.417 295.708 42.460 L 301.833 42.504 301.833 42.002 L 301.833 41.500 303.238 41.500 C 304.561 41.500,304.647 41.478,304.697 41.132 C 304.730 40.899,304.903 40.728,305.167 40.667 C 305.456 40.600,305.599 40.441,305.633 40.147 C 305.677 39.779,305.795 39.705,306.550 39.571 L 307.417 39.417 307.572 38.542 C 307.716 37.730,307.761 37.667,308.197 37.667 C 308.583 37.667,308.667 37.595,308.667 37.262 C 308.667 36.968,308.770 36.842,309.042 36.803 C 309.329 36.762,309.429 36.623,309.469 36.208 C 309.508 35.805,309.602 35.667,309.838 35.667 C 310.297 35.667,310.500 35.160,310.500 34.011 C 310.500 33.149,310.544 33.000,310.800 33.000 C 311.471 33.000,311.500 32.782,311.500 27.814 C 311.500 22.613,311.487 22.500,310.899 22.500 C 310.523 22.500,310.500 22.443,310.500 21.515 C 310.500 20.625,310.452 20.489,310.000 20.109 C 309.645 19.810,309.500 19.540,309.500 19.177 C 309.500 18.747,309.436 18.667,309.094 18.667 C 308.776 18.667,308.677 18.568,308.636 18.208 C 308.595 17.851,308.484 17.739,308.135 17.698 C 307.789 17.658,307.675 17.545,307.635 17.198 C 307.594 16.845,307.495 16.750,307.167 16.750 C 306.836 16.750,306.739 16.655,306.697 16.292 C 306.653 15.908,306.565 15.833,306.156 15.833 C 305.723 15.833,305.667 15.775,305.667 15.333 C 305.667 14.906,305.604 14.833,305.234 14.833 C 304.967 14.833,304.621 14.641,304.333 14.333 C 303.913 13.883,303.764 13.833,302.850 13.833 C 301.877 13.833,301.833 13.816,301.833 13.417 C 301.833 13.079,301.747 12.996,301.375 12.978 C 300.082 12.915,290.887 12.898,290.708 12.958 M316.403 12.986 C 316.365 13.024,316.333 22.043,316.333 33.028 L 316.333 53.000 320.583 53.000 L 324.833 53.000 324.833 46.779 L 324.833 40.558 325.324 40.630 C 325.670 40.681,325.830 40.807,325.866 41.059 C 325.910 41.370,326.041 41.423,326.865 41.466 C 327.756 41.513,327.816 41.543,327.865 41.966 L 327.917 42.417 333.500 42.417 L 339.083 42.417 339.136 41.958 C 339.187 41.516,339.223 41.500,340.178 41.500 C 341.114 41.500,341.167 41.479,341.167 41.094 C 341.167 40.776,341.265 40.677,341.625 40.636 C 341.980 40.595,342.095 40.484,342.134 40.143 C 342.179 39.759,342.283 39.687,342.935 39.589 C 343.747 39.467,344.000 39.128,344.000 38.156 C 344.000 37.723,344.058 37.667,344.500 37.667 C 344.921 37.667,345.000 37.601,345.000 37.253 C 345.000 36.955,345.112 36.812,345.401 36.739 C 345.827 36.632,345.994 36.252,345.998 35.383 C 345.999 35.037,346.147 34.701,346.417 34.432 C 346.822 34.026,346.833 33.952,346.833 31.627 L 346.833 29.240 347.333 29.051 C 348.160 28.739,348.012 26.333,347.165 26.333 C 346.863 26.333,346.840 26.181,346.796 23.958 C 346.751 21.638,346.741 21.582,346.375 21.530 C 346.056 21.485,346.000 21.375,346.000 20.792 C 346.000 19.905,345.678 19.026,345.310 18.909 C 345.131 18.852,345.000 18.613,344.968 18.284 C 344.926 17.844,344.838 17.741,344.468 17.698 C 344.122 17.658,344.008 17.545,343.968 17.198 C 343.925 16.824,343.841 16.755,343.458 16.781 C 343.055 16.809,343.000 16.754,343.000 16.323 C 343.000 15.919,342.931 15.833,342.604 15.833 C 342.298 15.833,342.186 15.720,342.108 15.333 C 342.024 14.913,341.930 14.833,341.516 14.833 C 341.135 14.833,341.011 14.750,340.970 14.465 C 340.907 14.032,340.453 13.874,339.208 13.850 C 338.455 13.836,338.333 13.788,338.333 13.506 C 338.333 12.928,337.841 12.871,333.060 12.900 C 328.244 12.930,327.833 12.985,327.833 13.604 C 327.833 13.764,327.611 13.833,327.095 13.833 C 326.353 13.833,325.833 14.139,325.833 14.576 C 325.833 14.697,325.608 14.829,325.333 14.869 L 324.833 14.942 324.833 13.971 C 324.833 13.162,324.785 12.998,324.542 12.987 C 323.272 12.933,316.458 12.932,316.403 12.986 M359.052 12.968 C 358.652 13.007,358.508 13.110,358.469 13.385 C 358.424 13.698,358.285 13.762,357.500 13.833 C 356.648 13.911,356.580 13.949,356.531 14.375 C 356.481 14.807,356.430 14.833,355.647 14.833 C 354.874 14.833,354.804 14.868,354.642 15.333 C 354.513 15.702,354.362 15.833,354.067 15.833 C 353.740 15.833,353.667 15.918,353.667 16.298 C 353.667 16.696,353.600 16.762,353.208 16.757 C 352.833 16.751,352.741 16.831,352.698 17.198 C 352.658 17.545,352.545 17.658,352.198 17.698 C 351.849 17.739,351.738 17.851,351.697 18.208 C 351.668 18.460,351.546 18.667,351.426 18.667 C 351.066 18.667,350.831 19.082,350.768 19.831 C 350.713 20.475,350.553 20.722,350.083 20.886 C 349.992 20.918,349.891 21.693,349.860 22.608 L 349.804 24.271 349.319 24.455 L 348.833 24.638 348.833 27.806 L 348.833 30.974 349.326 31.467 C 349.783 31.924,349.823 32.063,349.868 33.355 C 349.913 34.658,349.942 34.754,350.292 34.803 C 350.666 34.856,350.727 35.023,350.674 35.853 C 350.644 36.320,351.039 36.833,351.429 36.833 C 351.571 36.833,351.667 37.000,351.667 37.250 C 351.667 37.602,351.744 37.667,352.167 37.667 C 352.611 37.667,352.667 37.722,352.667 38.167 C 352.667 38.611,352.722 38.667,353.167 38.667 C 353.611 38.667,353.667 38.722,353.667 39.167 C 353.667 39.589,353.731 39.667,354.083 39.667 C 354.373 39.667,354.500 39.758,354.500 39.967 C 354.500 40.344,354.814 40.667,355.182 40.667 C 355.344 40.667,355.508 40.844,355.568 41.083 C 355.669 41.484,355.724 41.500,356.992 41.500 C 358.307 41.500,358.311 41.501,358.364 41.958 L 358.417 42.417 364.545 42.460 L 370.674 42.504 370.775 42.002 C 370.871 41.518,370.908 41.500,371.771 41.500 C 372.615 41.500,372.667 41.476,372.667 41.083 C 372.667 40.702,372.729 40.667,373.403 40.667 C 374.391 40.667,374.667 40.538,374.667 40.077 C 374.667 39.777,374.771 39.677,375.125 39.636 C 375.485 39.595,375.595 39.485,375.636 39.125 C 375.677 38.765,375.776 38.667,376.094 38.667 C 376.444 38.667,376.500 38.589,376.500 38.101 C 376.500 37.764,376.596 37.499,376.739 37.444 C 377.331 37.217,377.376 36.674,376.843 36.206 C 376.563 35.960,376.333 35.662,376.333 35.543 C 376.333 35.424,376.146 35.241,375.917 35.136 C 375.688 35.032,375.500 34.824,375.500 34.673 C 375.500 34.313,375.174 34.000,374.800 34.000 C 374.595 34.000,374.500 33.874,374.500 33.601 C 374.500 33.071,374.253 33.000,372.403 33.000 L 370.833 33.000 370.833 33.500 C 370.833 33.995,370.824 34.000,369.917 34.000 C 369.050 34.000,369.000 34.023,369.000 34.417 C 369.000 34.848,368.757 34.928,367.667 34.856 C 367.214 34.826,366.167 35.391,366.167 35.664 C 366.167 35.761,365.705 35.833,365.083 35.833 C 364.122 35.833,364.000 35.797,364.000 35.510 C 364.000 35.022,363.455 34.874,361.542 34.840 C 361.255 34.835,361.167 34.736,361.167 34.417 C 361.167 34.089,361.082 34.000,360.771 34.000 C 360.464 34.000,360.352 33.887,360.275 33.500 C 360.196 33.107,360.087 33.000,359.765 33.000 C 359.442 33.000,359.344 32.903,359.303 32.542 C 359.261 32.182,359.152 32.072,358.792 32.031 C 358.408 31.986,358.333 31.898,358.333 31.489 L 358.333 31.000 368.420 31.000 L 378.506 31.000 378.461 26.792 L 378.417 22.583 377.958 22.531 L 377.500 22.478 377.500 21.072 L 377.500 19.667 377.008 19.667 C 376.527 19.667,376.516 19.647,376.467 18.708 C 376.423 17.868,376.372 17.744,376.052 17.698 C 375.796 17.662,375.671 17.512,375.635 17.198 C 375.593 16.831,375.501 16.751,375.125 16.757 C 374.733 16.762,374.667 16.696,374.667 16.298 C 374.667 15.893,374.603 15.833,374.167 15.833 C 373.722 15.833,373.667 15.778,373.667 15.333 C 373.667 14.889,373.611 14.833,373.167 14.833 C 372.776 14.833,372.667 14.760,372.667 14.496 C 372.667 14.050,372.064 13.833,370.822 13.833 C 369.879 13.833,369.833 13.814,369.833 13.417 C 369.833 13.188,369.740 12.988,369.625 12.974 C 369.212 12.923,359.571 12.918,359.052 12.968 M382.874 12.969 L 382.332 13.021 382.374 27.719 L 382.417 42.417 386.625 42.461 L 390.833 42.506 390.833 35.764 C 390.833 29.106,390.838 29.021,391.176 28.914 C 391.663 28.759,391.833 28.173,391.833 26.659 C 391.833 25.405,391.853 25.335,392.234 25.239 C 392.661 25.132,392.827 24.752,392.831 23.875 C 392.833 23.385,392.881 23.333,393.333 23.333 C 393.750 23.333,393.833 23.267,393.833 22.932 C 393.833 22.577,393.929 22.518,394.667 22.417 C 395.363 22.321,395.518 22.235,395.602 21.901 C 395.700 21.512,395.751 21.500,397.320 21.500 C 399.041 21.500,399.648 21.293,399.449 20.774 C 399.373 20.577,399.436 20.500,399.672 20.500 C 399.989 20.500,400.000 20.369,400.000 16.680 L 400.000 12.860 397.678 12.900 C 395.338 12.940,394.833 13.065,394.833 13.604 C 394.833 13.761,394.620 13.833,394.156 13.833 C 393.321 13.833,392.833 14.077,392.833 14.495 C 392.833 14.716,392.696 14.827,392.375 14.864 C 392.015 14.905,391.905 15.015,391.864 15.375 C 391.823 15.731,391.723 15.833,391.417 15.833 C 391.114 15.833,391.006 15.940,390.953 16.292 C 390.915 16.544,390.872 15.887,390.858 14.833 L 390.833 12.917 387.125 12.917 C 385.085 12.917,383.173 12.940,382.874 12.969 M191.000 20.083 C 191.000 20.477,191.050 20.500,191.917 20.500 C 192.824 20.500,192.833 20.505,192.833 21.000 C 192.833 21.444,192.889 21.500,193.333 21.500 C 193.778 21.500,193.833 21.556,193.833 22.000 C 193.833 22.434,193.894 22.500,194.292 22.500 C 194.741 22.500,194.750 22.520,194.750 23.499 L 194.750 24.499 189.042 24.500 L 183.333 24.500 183.333 23.917 C 183.333 23.596,183.403 23.333,183.488 23.333 C 183.844 23.333,184.167 22.772,184.167 22.155 C 184.167 21.572,184.211 21.500,184.572 21.500 C 185.215 21.500,185.858 21.192,185.950 20.839 C 186.018 20.581,186.208 20.506,186.892 20.466 C 187.596 20.426,187.780 20.349,187.915 20.042 C 188.184 19.428,191.000 19.466,191.000 20.083 M250.333 20.083 C 250.333 20.477,250.383 20.500,251.250 20.500 C 252.157 20.500,252.167 20.505,252.167 21.000 C 252.167 21.442,252.223 21.500,252.656 21.500 C 253.065 21.500,253.153 21.575,253.197 21.958 C 253.236 22.292,253.362 22.438,253.667 22.499 C 254.052 22.577,254.084 22.654,254.088 23.542 L 254.092 24.500 248.379 24.500 L 242.667 24.500 242.667 23.956 C 242.667 23.552,242.763 23.370,243.042 23.248 C 243.339 23.117,243.427 22.925,243.466 22.321 L 243.516 21.558 244.383 21.404 C 245.091 21.278,245.260 21.183,245.302 20.883 C 245.347 20.567,245.474 20.510,246.219 20.467 C 246.929 20.426,247.113 20.350,247.248 20.042 C 247.517 19.428,250.333 19.466,250.333 20.083 M366.030 20.042 C 366.077 20.374,366.193 20.422,367.042 20.467 C 367.980 20.516,368.000 20.527,368.000 21.008 C 368.000 21.409,368.070 21.500,368.380 21.500 C 368.649 21.500,368.815 21.646,368.949 22.000 C 369.072 22.326,369.254 22.500,369.471 22.500 C 369.760 22.500,369.811 22.630,369.860 23.500 L 369.917 24.501 364.125 24.500 L 358.333 24.500 358.333 23.917 C 358.333 23.413,358.387 23.333,358.732 23.333 C 359.195 23.333,359.333 23.061,359.333 22.153 C 359.333 21.516,359.347 21.500,359.928 21.500 C 360.691 21.500,361.167 21.242,361.167 20.827 C 361.167 20.545,361.283 20.500,362.004 20.500 C 362.735 20.500,362.865 20.447,363.030 20.083 C 363.310 19.469,365.944 19.432,366.030 20.042 M298.333 20.741 C 298.333 21.084,298.993 21.500,299.537 21.500 C 299.921 21.500,300.000 21.572,300.000 21.921 C 300.000 22.255,300.103 22.362,300.500 22.442 C 300.887 22.519,301.000 22.631,301.000 22.938 C 301.000 23.248,301.089 23.333,301.413 23.333 C 301.852 23.333,301.952 23.546,302.038 24.667 C 302.074 25.128,302.162 25.261,302.458 25.303 C 302.827 25.356,302.833 25.395,302.833 27.750 C 302.833 30.105,302.827 30.144,302.458 30.197 C 302.132 30.243,302.077 30.363,302.033 31.115 C 301.987 31.916,301.950 31.983,301.533 32.031 C 301.182 32.072,301.072 32.184,301.031 32.542 C 300.992 32.873,300.885 33.000,300.641 33.000 C 300.421 33.000,300.240 33.171,300.119 33.492 C 299.990 33.833,299.802 34.000,299.508 34.034 C 299.214 34.068,299.067 34.198,299.030 34.458 C 298.994 34.711,298.858 34.838,298.613 34.847 C 298.268 34.861,296.437 34.969,296.083 34.997 C 295.992 35.004,295.354 34.977,294.667 34.936 C 293.979 34.896,293.173 34.856,292.875 34.848 C 292.412 34.835,292.333 34.773,292.333 34.417 C 292.333 34.065,292.256 34.000,291.833 34.000 C 291.389 34.000,291.333 33.944,291.333 33.500 C 291.333 33.081,291.267 33.000,290.928 33.000 C 290.609 33.000,290.511 32.902,290.469 32.542 C 290.428 32.184,290.318 32.072,289.965 32.031 C 289.519 31.980,289.512 31.961,289.465 30.615 C 289.417 29.263,289.412 29.249,288.958 29.197 C 288.320 29.124,288.246 27.359,288.870 27.081 C 289.302 26.889,289.460 26.410,289.483 25.226 C 289.498 24.467,289.546 24.358,289.901 24.269 C 290.235 24.185,290.321 24.030,290.417 23.334 C 290.518 22.596,290.577 22.500,290.932 22.500 C 291.267 22.500,291.333 22.417,291.333 22.000 C 291.333 21.514,291.356 21.500,292.133 21.500 C 292.979 21.500,293.333 21.293,293.333 20.800 C 293.333 20.524,293.537 20.500,295.833 20.500 C 297.901 20.500,298.333 20.542,298.333 20.741 M334.531 20.958 C 334.573 21.328,334.679 21.428,335.078 21.473 C 335.350 21.504,335.673 21.673,335.796 21.848 C 335.918 22.023,336.127 22.167,336.259 22.167 C 336.392 22.167,336.485 22.223,336.467 22.292 C 336.388 22.592,336.705 23.138,337.006 23.216 C 337.242 23.278,337.333 23.445,337.333 23.818 C 337.333 24.280,337.386 24.333,337.833 24.333 L 338.333 24.333 338.333 27.646 L 338.333 30.958 337.833 31.058 C 337.410 31.143,337.333 31.236,337.333 31.663 C 337.333 31.980,337.248 32.167,337.104 32.167 C 336.801 32.167,336.488 32.557,336.456 32.975 C 336.442 33.159,336.390 33.307,336.340 33.302 C 336.010 33.272,335.842 33.375,335.750 33.667 C 335.671 33.915,335.498 34.000,335.072 34.000 C 334.573 34.000,334.500 34.053,334.500 34.417 C 334.500 34.886,334.621 34.867,331.667 34.867 C 328.545 34.867,328.667 34.885,328.667 34.417 C 328.667 34.065,328.589 34.000,328.167 34.000 C 327.745 34.000,327.667 33.935,327.667 33.587 C 327.667 33.284,327.554 33.145,327.249 33.068 C 326.995 33.004,326.791 32.806,326.730 32.563 C 326.671 32.328,326.466 32.123,326.232 32.064 C 325.957 31.995,325.833 31.846,325.833 31.583 C 325.833 31.373,325.608 30.961,325.333 30.667 L 324.833 30.131 324.833 27.566 C 324.833 25.491,324.877 25.000,325.064 25.000 C 325.381 25.000,325.833 24.269,325.833 23.756 C 325.833 23.420,325.916 23.333,326.237 23.333 C 326.548 23.333,326.665 23.221,326.748 22.843 C 326.821 22.510,326.971 22.337,327.219 22.302 C 327.449 22.269,327.603 22.112,327.637 21.875 C 327.678 21.584,327.799 21.500,328.178 21.500 C 328.610 21.500,328.667 21.442,328.667 21.000 L 328.667 20.500 331.572 20.500 L 334.478 20.500 334.531 20.958 M279.000 52.667 C 279.000 52.942,278.930 53.167,278.845 53.167 C 278.148 53.167,278.167 52.619,278.167 72.940 C 278.167 92.344,278.181 92.833,278.756 92.833 C 278.890 92.833,279.000 92.910,279.000 93.003 C 279.000 93.114,280.437 93.157,283.208 93.128 L 287.417 93.083 287.461 73.167 C 287.494 58.631,287.455 53.154,287.318 52.893 C 286.975 52.244,286.483 52.167,282.659 52.167 L 279.000 52.167 279.000 52.667 M136.333 74.085 L 136.333 93.172 140.625 93.128 L 144.917 93.083 144.961 87.875 L 145.005 82.667 150.461 82.664 C 156.139 82.661,156.214 82.654,156.405 82.042 C 156.514 81.693,156.617 81.667,157.896 81.667 C 159.258 81.667,160.000 81.370,160.000 80.827 C 160.000 80.739,160.305 80.667,160.678 80.667 C 161.447 80.667,162.000 80.428,162.000 80.096 C 162.000 79.970,162.258 79.822,162.583 79.761 C 163.057 79.672,163.167 79.576,163.167 79.254 C 163.167 78.943,163.268 78.844,163.625 78.803 C 163.985 78.761,164.095 78.652,164.136 78.292 C 164.177 77.932,164.276 77.833,164.594 77.833 C 164.920 77.833,165.000 77.748,165.000 77.400 C 165.000 77.134,165.193 76.787,165.500 76.500 C 165.873 76.152,166.000 75.883,166.000 75.444 C 166.000 75.018,166.085 74.829,166.308 74.758 C 166.943 74.557,167.000 74.018,167.000 68.242 L 167.000 62.667 166.500 62.667 L 166.000 62.667 166.000 61.667 L 166.000 60.667 165.500 60.667 C 165.022 60.667,165.000 60.635,165.000 59.950 C 165.000 59.188,164.781 58.833,164.311 58.833 C 164.120 58.833,164.004 58.678,163.969 58.375 C 163.920 57.948,163.858 57.913,163.042 57.866 C 162.195 57.818,162.167 57.800,162.167 57.325 C 162.167 56.890,162.109 56.833,161.667 56.833 C 161.283 56.833,161.167 56.758,161.167 56.510 C 161.167 56.058,160.940 55.961,159.771 55.911 C 159.209 55.887,158.661 55.859,158.553 55.850 C 158.445 55.841,158.333 55.665,158.303 55.458 L 158.250 55.083 147.292 55.040 L 136.333 54.998 136.333 74.085 M226.447 56.942 C 226.385 57.004,226.333 58.731,226.333 60.778 L 226.333 64.500 224.428 64.500 L 222.522 64.500 222.469 64.042 L 222.417 63.583 219.625 63.552 L 216.833 63.521 216.833 64.011 C 216.833 64.498,216.829 64.500,215.833 64.500 L 214.833 64.500 214.833 65.000 C 214.833 65.480,214.804 65.500,214.093 65.500 C 213.684 65.500,213.293 65.593,213.218 65.708 C 213.139 65.830,213.049 65.432,213.000 64.750 L 212.917 63.583 208.625 63.546 L 204.333 63.508 204.333 78.340 L 204.333 93.172 208.625 93.128 L 212.917 93.083 212.960 84.969 C 213.001 77.190,213.016 76.851,213.317 76.755 C 213.651 76.649,213.827 76.205,213.831 75.458 C 213.833 75.129,213.918 75.000,214.133 75.000 C 214.511 75.000,214.833 74.686,214.833 74.318 C 214.833 74.156,215.011 73.992,215.250 73.932 C 215.507 73.867,215.667 73.709,215.667 73.518 C 215.667 73.307,215.827 73.176,216.167 73.108 C 216.564 73.029,216.667 72.922,216.667 72.587 C 216.667 72.172,216.684 72.167,218.014 72.167 C 219.359 72.167,219.363 72.165,219.551 71.667 L 219.740 71.167 223.037 71.167 L 226.333 71.167 226.333 79.175 L 226.333 87.184 226.827 87.356 C 227.309 87.524,227.321 87.557,227.368 88.806 C 227.413 89.975,227.448 90.088,227.781 90.135 C 228.029 90.170,228.179 90.343,228.252 90.677 C 228.334 91.050,228.454 91.167,228.752 91.167 C 229.056 91.167,229.156 91.270,229.197 91.625 C 229.247 92.059,229.301 92.086,230.208 92.133 C 231.147 92.182,231.167 92.193,231.167 92.675 L 231.167 93.167 235.917 93.167 L 240.667 93.167 240.667 92.667 L 240.667 92.167 241.883 92.167 C 243.471 92.167,243.500 92.129,243.498 90.092 C 243.495 88.130,243.409 87.713,242.982 87.578 C 242.732 87.498,242.666 87.315,242.665 86.697 C 242.664 86.268,242.617 85.640,242.561 85.303 L 242.460 84.689 241.380 84.573 C 240.083 84.434,239.079 84.680,238.951 85.168 C 238.873 85.469,238.723 85.500,237.349 85.500 L 235.833 85.500 235.833 85.029 C 235.833 84.742,235.670 84.405,235.417 84.167 L 235.000 83.775 235.000 77.474 L 235.000 71.172 239.208 71.128 L 243.417 71.083 243.417 67.833 L 243.417 64.583 239.211 64.539 L 235.006 64.494 234.961 60.705 L 234.917 56.917 230.739 56.872 C 228.441 56.848,226.510 56.879,226.447 56.942 M153.753 62.843 C 153.896 63.292,154.479 63.500,155.594 63.500 C 156.490 63.500,156.500 63.506,156.500 64.000 C 156.500 64.442,156.557 64.500,156.989 64.500 C 157.398 64.500,157.486 64.574,157.531 64.958 C 157.567 65.278,157.691 65.432,157.938 65.467 C 158.390 65.532,158.594 68.230,158.350 70.932 C 158.341 71.031,158.146 71.199,157.917 71.303 C 157.665 71.418,157.500 71.631,157.500 71.843 C 157.500 72.382,156.618 73.167,156.013 73.167 C 155.582 73.167,155.500 73.231,155.500 73.567 C 155.500 74.081,155.259 74.100,149.425 74.032 L 145.000 73.980 145.000 68.240 L 145.000 62.500 149.322 62.500 C 153.538 62.500,153.647 62.508,153.753 62.843 M178.608 63.614 C 178.549 63.673,178.500 63.894,178.500 64.104 C 178.500 64.468,178.433 64.489,177.125 64.535 C 175.763 64.583,175.750 64.588,175.697 65.042 C 175.653 65.426,175.565 65.500,175.156 65.500 C 174.753 65.500,174.667 65.569,174.667 65.893 C 174.667 66.237,174.558 66.305,173.799 66.435 C 173.067 66.560,172.915 66.649,172.833 66.999 C 172.778 67.232,172.592 67.442,172.409 67.477 C 171.959 67.562,171.839 67.802,171.836 68.625 C 171.833 69.300,171.810 69.333,171.333 69.333 C 170.917 69.333,170.833 69.400,170.833 69.734 C 170.833 70.029,170.702 70.180,170.333 70.308 C 169.865 70.472,169.833 70.537,169.833 71.340 C 169.833 72.057,169.779 72.212,169.501 72.285 C 168.939 72.432,168.850 73.355,168.884 78.724 L 168.917 83.865 169.375 84.230 C 169.753 84.532,169.833 84.727,169.833 85.348 C 169.833 86.143,170.047 86.500,170.522 86.500 C 170.714 86.500,170.829 86.655,170.864 86.958 C 170.905 87.318,171.015 87.428,171.375 87.469 C 171.799 87.518,171.833 87.578,171.833 88.270 C 171.833 88.947,171.879 89.033,172.323 89.188 C 172.630 89.295,172.833 89.495,172.865 89.721 C 172.907 90.016,173.080 90.112,173.792 90.239 C 174.551 90.374,174.667 90.445,174.667 90.780 C 174.667 91.097,174.755 91.167,175.156 91.167 C 175.565 91.167,175.653 91.241,175.697 91.625 C 175.749 92.079,175.763 92.084,177.115 92.132 C 178.461 92.179,178.480 92.186,178.531 92.632 L 178.583 93.083 184.108 93.127 C 189.823 93.173,190.458 93.112,190.617 92.505 C 190.687 92.237,190.875 92.173,191.726 92.132 C 192.705 92.085,192.752 92.063,192.803 91.625 C 192.849 91.223,192.927 91.167,193.436 91.167 C 193.829 91.167,194.134 91.041,194.383 90.776 C 194.585 90.561,194.956 90.335,195.208 90.273 C 195.551 90.189,195.667 90.059,195.667 89.758 C 195.667 89.443,195.766 89.344,196.125 89.303 C 196.480 89.262,196.595 89.151,196.635 88.807 C 196.670 88.501,196.809 88.334,197.087 88.264 C 197.423 88.180,197.507 88.027,197.599 87.332 C 197.697 86.599,197.757 86.500,198.105 86.500 C 198.477 86.500,198.500 86.441,198.500 85.500 L 198.500 84.500 199.000 84.500 L 199.500 84.500 199.500 82.583 C 199.500 80.770,199.518 80.667,199.837 80.667 C 200.323 80.667,200.500 80.044,200.500 78.333 C 200.500 76.623,200.323 76.000,199.837 76.000 C 199.518 76.000,199.500 75.897,199.500 74.083 L 199.500 72.167 199.008 72.167 C 198.527 72.167,198.516 72.147,198.467 71.208 C 198.423 70.371,198.371 70.243,198.056 70.199 C 197.761 70.157,197.675 69.998,197.582 69.323 C 197.488 68.643,197.400 68.481,197.077 68.400 C 196.810 68.333,196.670 68.162,196.635 67.859 C 196.595 67.516,196.480 67.405,196.125 67.364 C 195.765 67.323,195.667 67.224,195.667 66.906 C 195.667 66.580,195.581 66.500,195.234 66.500 C 194.967 66.500,194.621 66.307,194.333 66.000 C 194.013 65.657,193.708 65.500,193.361 65.500 C 192.933 65.500,192.847 65.429,192.803 65.042 C 192.753 64.608,192.698 64.581,191.801 64.534 C 191.022 64.493,190.758 64.397,190.334 64.001 L 189.817 63.518 184.267 63.512 C 181.214 63.508,178.668 63.554,178.608 63.614 M252.792 63.622 C 252.475 63.668,252.303 63.813,252.232 64.094 C 252.141 64.460,252.044 64.500,251.253 64.500 C 250.411 64.500,250.371 64.520,250.275 65.000 C 250.178 65.483,250.144 65.500,249.254 65.500 C 248.335 65.500,248.333 65.501,248.333 66.018 C 248.333 66.421,248.275 66.513,248.070 66.435 C 247.925 66.379,247.510 66.381,247.147 66.439 L 246.487 66.545 246.535 67.814 C 246.580 68.986,246.612 69.087,246.958 69.137 C 247.165 69.166,247.339 69.278,247.345 69.387 C 247.407 70.450,247.666 71.000,248.104 71.000 C 248.251 71.000,248.333 71.191,248.333 71.530 C 248.333 72.333,249.308 73.167,250.246 73.167 C 251.212 73.167,252.000 72.870,252.000 72.507 C 252.000 72.278,252.186 72.191,252.837 72.114 C 253.845 71.995,254.000 71.911,254.000 71.490 C 254.000 71.197,254.125 71.167,255.342 71.167 L 256.684 71.167 256.861 70.659 C 257.094 69.991,258.874 69.948,258.968 70.608 C 259.029 71.035,259.421 71.161,260.692 71.164 C 261.588 71.167,261.643 71.191,261.808 71.667 C 261.926 72.003,262.095 72.167,262.325 72.167 C 262.579 72.167,262.667 72.274,262.667 72.587 C 262.667 72.922,262.770 73.029,263.167 73.108 C 263.648 73.205,263.667 73.242,263.667 74.104 L 263.667 75.000 257.264 75.000 C 250.387 75.000,250.333 75.005,250.333 75.593 C 250.333 75.951,250.255 75.987,249.375 76.033 C 248.468 76.081,248.414 76.108,248.364 76.542 C 248.320 76.927,248.232 77.000,247.816 77.000 C 247.375 77.000,247.326 77.050,247.369 77.458 C 247.412 77.868,247.368 77.912,246.958 77.869 C 246.552 77.826,246.500 77.876,246.500 78.306 C 246.500 78.712,246.418 78.808,246.000 78.892 L 245.500 78.992 245.500 80.401 C 245.500 81.644,245.462 81.823,245.181 81.912 C 244.219 82.217,244.237 85.500,245.200 85.500 C 245.464 85.500,245.500 85.660,245.500 86.822 C 245.500 88.324,245.693 88.994,246.159 89.116 C 246.375 89.173,246.498 89.373,246.532 89.725 C 246.574 90.150,246.666 90.260,247.017 90.300 C 247.378 90.342,247.437 90.419,247.372 90.759 C 247.304 91.119,247.353 91.167,247.803 91.167 C 248.234 91.167,248.319 91.237,248.364 91.625 C 248.414 92.058,248.469 92.086,249.365 92.133 C 250.256 92.180,250.316 92.209,250.365 92.633 L 250.417 93.083 255.667 93.130 C 261.552 93.182,261.667 93.172,261.667 92.580 C 261.667 92.191,261.719 92.167,262.569 92.167 C 263.136 92.167,263.504 92.089,263.556 91.958 C 263.603 91.844,263.646 92.069,263.654 92.458 L 263.667 93.167 267.917 93.167 L 272.167 93.167 272.167 81.689 L 272.167 70.212 271.773 69.814 C 271.496 69.535,271.344 69.135,271.262 68.469 C 271.163 67.664,271.090 67.513,270.781 67.469 C 270.528 67.433,270.401 67.282,270.366 66.977 C 270.327 66.642,270.199 66.515,269.824 66.440 C 269.436 66.362,269.333 66.253,269.333 65.921 C 269.333 65.564,269.257 65.500,268.833 65.500 C 268.447 65.500,268.333 65.425,268.333 65.173 C 268.333 64.757,267.857 64.500,267.090 64.500 C 266.615 64.500,266.461 64.419,266.342 64.107 C 266.248 63.858,266.010 63.677,265.695 63.614 C 265.155 63.506,253.542 63.513,252.792 63.622 M187.197 71.625 C 187.246 72.052,187.309 72.087,188.125 72.134 C 188.920 72.180,189.000 72.220,189.000 72.579 C 189.000 72.797,189.219 73.193,189.486 73.461 C 189.754 73.728,189.998 74.165,190.028 74.432 C 190.068 74.780,190.185 74.931,190.443 74.968 C 190.776 75.015,190.811 75.146,190.914 76.718 C 191.046 78.735,190.969 81.829,190.790 81.721 C 190.330 81.445,190.000 81.880,190.000 82.761 C 190.000 83.652,189.992 83.667,189.511 83.667 C 189.108 83.667,189.013 83.743,188.969 84.104 C 188.923 84.488,188.830 84.548,188.190 84.605 C 187.306 84.683,187.167 84.761,187.167 85.177 C 187.167 85.484,187.026 85.500,184.250 85.500 L 181.333 85.500 181.333 85.097 C 181.333 84.780,181.221 84.668,180.813 84.579 C 180.504 84.511,180.259 84.336,180.210 84.147 C 180.164 83.973,179.948 83.785,179.730 83.730 C 179.452 83.660,179.333 83.513,179.333 83.235 C 179.333 82.955,179.215 82.810,178.926 82.738 C 178.643 82.666,178.504 82.501,178.468 82.193 C 178.426 81.828,178.336 81.753,177.958 81.769 L 177.500 81.788 177.500 78.830 C 177.500 76.018,177.516 75.868,177.831 75.786 C 178.191 75.692,178.500 75.053,178.500 74.406 C 178.500 74.090,178.588 74.000,178.896 74.000 C 179.200 74.000,179.314 73.887,179.389 73.512 C 179.458 73.168,179.599 73.009,179.868 72.971 C 180.112 72.936,180.269 72.785,180.302 72.552 C 180.338 72.296,180.488 72.171,180.802 72.135 C 181.151 72.095,181.262 71.982,181.303 71.625 L 181.355 71.167 184.250 71.167 L 187.145 71.167 187.197 71.625 M263.667 82.167 L 263.667 83.667 263.167 83.667 C 262.744 83.667,262.667 83.731,262.667 84.083 C 262.667 84.373,262.576 84.500,262.367 84.500 C 261.986 84.500,261.667 84.815,261.667 85.191 C 261.667 85.425,261.494 85.493,260.792 85.533 C 259.976 85.580,259.913 85.614,259.864 86.042 L 259.811 86.500 257.824 86.500 L 255.836 86.500 255.358 86.000 C 255.069 85.698,254.711 85.500,254.451 85.500 C 254.107 85.500,254.012 85.409,253.969 85.042 C 253.932 84.713,253.810 84.568,253.542 84.530 C 252.933 84.444,252.973 82.667,253.583 82.667 C 253.934 82.667,254.000 82.588,254.000 82.175 C 254.000 81.693,254.020 81.682,254.958 81.633 C 255.866 81.586,255.919 81.559,255.969 81.125 L 256.022 80.667 259.844 80.667 L 263.667 80.667 263.667 82.167 " stroke="none" fill="#343434" fill-rule="evenodd"></path><path id="path4" d="M186.375 12.953 C 186.627 12.991,187.040 12.991,187.292 12.953 C 187.544 12.915,187.338 12.883,186.833 12.883 C 186.329 12.883,186.123 12.915,186.375 12.953 M191.208 12.953 C 191.460 12.991,191.873 12.991,192.125 12.953 C 192.377 12.915,192.171 12.883,191.667 12.883 C 191.162 12.883,190.956 12.915,191.208 12.953 M206.384 12.958 C 207.282 12.988,208.707 12.988,209.550 12.957 C 210.393 12.927,209.658 12.903,207.917 12.903 C 206.175 12.903,205.485 12.928,206.384 12.958 M227.542 12.958 C 228.435 12.988,229.898 12.988,230.792 12.958 C 231.685 12.928,230.954 12.903,229.167 12.903 C 227.379 12.903,226.648 12.928,227.542 12.958 M245.795 12.954 C 246.094 12.991,246.544 12.990,246.795 12.952 C 247.045 12.914,246.800 12.884,246.250 12.885 C 245.700 12.886,245.495 12.917,245.795 12.954 M250.542 12.953 C 250.794 12.991,251.206 12.991,251.458 12.953 C 251.710 12.915,251.504 12.883,251.000 12.883 C 250.496 12.883,250.290 12.915,250.542 12.953 M293.295 12.954 C 293.594 12.991,294.044 12.990,294.295 12.952 C 294.545 12.914,294.300 12.884,293.750 12.885 C 293.200 12.886,292.995 12.917,293.295 12.954 M297.625 12.954 C 297.923 12.991,298.410 12.991,298.708 12.954 C 299.006 12.917,298.762 12.887,298.167 12.887 C 297.571 12.887,297.327 12.917,297.625 12.954 M318.717 12.958 C 319.616 12.988,321.041 12.988,321.884 12.957 C 322.727 12.927,321.992 12.903,320.250 12.903 C 318.508 12.903,317.818 12.928,318.717 12.958 M330.711 12.953 C 330.964 12.991,331.339 12.990,331.544 12.951 C 331.749 12.911,331.542 12.880,331.083 12.881 C 330.625 12.882,330.457 12.915,330.711 12.953 M334.708 12.953 C 334.960 12.991,335.373 12.991,335.625 12.953 C 335.877 12.915,335.671 12.883,335.167 12.883 C 334.662 12.883,334.456 12.915,334.708 12.953 M361.628 12.954 C 361.928 12.991,362.378 12.990,362.628 12.952 C 362.878 12.914,362.633 12.884,362.083 12.885 C 361.533 12.886,361.328 12.917,361.628 12.954 M366.375 12.953 C 366.627 12.991,367.040 12.991,367.292 12.953 C 367.544 12.915,367.337 12.883,366.833 12.883 C 366.329 12.883,366.123 12.915,366.375 12.953 M385.550 12.958 C 386.449 12.988,387.874 12.988,388.717 12.957 C 389.560 12.927,388.825 12.903,387.083 12.903 C 385.342 12.903,384.652 12.928,385.550 12.958 M397.458 12.951 C 397.665 12.991,398.002 12.991,398.208 12.951 C 398.415 12.911,398.246 12.879,397.833 12.879 C 397.421 12.879,397.252 12.911,397.458 12.951 M186.114 24.458 C 187.690 24.485,190.315 24.485,191.948 24.458 C 193.581 24.431,192.292 24.408,189.083 24.408 C 185.875 24.408,184.539 24.431,186.114 24.458 M245.448 24.458 C 247.023 24.485,249.648 24.485,251.281 24.458 C 252.914 24.431,251.625 24.408,248.417 24.408 C 245.208 24.408,243.872 24.431,245.448 24.458 M361.208 24.458 C 362.835 24.485,365.498 24.485,367.125 24.458 C 368.752 24.431,367.421 24.408,364.167 24.408 C 360.912 24.408,359.581 24.431,361.208 24.458 M62.721 47.125 C 66.463 47.150,72.538 47.150,76.221 47.125 C 79.904 47.100,76.842 47.079,69.417 47.079 C 61.992 47.079,58.979 47.100,62.721 47.125 M168.872 75.500 C 168.872 75.821,168.906 75.952,168.948 75.792 C 168.990 75.631,168.990 75.369,168.948 75.208 C 168.906 75.048,168.872 75.179,168.872 75.500 M168.875 81.083 C 168.877 81.450,168.911 81.580,168.951 81.373 C 168.991 81.166,168.990 80.866,168.948 80.706 C 168.906 80.547,168.874 80.717,168.875 81.083 " stroke="none" fill="#648064" fill-rule="evenodd"></path></g></svg>